<svg width="192" height="192" viewBox="0 0 192 192" fill="none" xmlns="http://www.w3.org/2000/svg"><g clip-path="url(#a)"><path d="m166 71.8-2.6-2.4-25.5 58.4a47.2 47.2 0 0 0-34.4-10.2c-12.4.8-16.2 11-20 22.3a1.5 1.5 0 0 1-3 0c-2.9-9.1-7.1-18.5-15.4-22.3-11.2-5-31.3-6.7-42.7 1.6-3 6-.9 12.9 3.2 14.5 5.1 2 34.1 0 46.6 15.5 2 2.5 5.5 6 7.2 6.2 6.3 1 13.2-4.8 18.7-7.2 22.8-10.4 36.9-4.2 41.8-3.4 6 1 11.5-.6 13.1-4 5-10 15.9-44 17.6-51.7 2.1-9.4-4.7-17.3-4.7-17.3Z" fill="#7AC5B8"/><path d="M132.3 66.3a45 45 0 0 0-32.1 10.3c-.7-1.6-4.9-19.8-17.6-22.8-13.7-3.1-31.2-3-40.1 14.9-9 17.9-15 33-20 50.4 18.6 0 28 .4 39.4 5.2a38.5 38.5 0 0 1 18.1 16c.8 1.7 3 1.5 4 0 8-10.8 40-15.5 56.2-10.3 1 .3 2.1-.6 2.5-1.6 7.5-19.8 13.2-39.5 20.7-59-13-7.5-17.3-1.5-31.1-3.1Z" fill="#EEEFF7"/><path d="M99.1 78.7C84.3 60.5 79.8 50.6 62.7 58.8c-.6.3-8.7 12.8-11 18.2-4.3 9.5-8 19.2-11.2 29 22.6-.7 31.8 3.4 44.2 20.3-1.6-1.3 4-31 14.4-47.6Z" fill="#E2504B"/><path d="M84.6 123.3A113.8 113.8 0 0 0 65 93.8c-10-10-23-14-28-14 6.3-16 11.8-26.5 20.8-42.5 5-1 18.4.5 30.2 11.5 14 13 12.3 25.6 12.3 27.8-7.3 19.7-8.3 24.9-15.6 46.7Z" fill="#F1B73E"/><path d="M81 123a52.7 52.7 0 0 0-2 12c0 .8 0 1.5-.2 2.2l-.1 1.3v.9c-.3 1.6.3 3.3 2 3.7 1.4.3 3.5-.4 3.7-2l1-9.4.2-1.8c0-.6 0 .4 0 0v-.4l.2-.9c.2-1.4.5-2.7 1-4a3 3 0 1 0-5.9-1.7Z" fill="#182B81"/><path d="m112.3 80.9 1.2-6a5.5 5.5 0 0 1-5.3-1.9c-1.6-2.1-1-5 .5-6.8 1.5-1.8 5.2-1.4 7.5-.8.2-2.2.6-4.4 1.1-6.6-.3-.3-3.5-.6-3.5-4.5 0-4.3 5.7-9.7 8.1-2.8 1.5.4 3.6.4 5.1.8-1-2-1.5-2.4-.2-4 1.5-2 4.5-1.6 6.4-.6 2.2 1.2 3.2 2.9 1 6.2 1.2.3 3.7.4 5 .7a4 4 0 0 1 .6-5c2.3-2.6 7.5-1.6 8.4.6.6 1.5-.8 4-3.5 5.8 1.3.6 1.7.6 4.7 1a4 4 0 0 1 4.2-.8c3.3 1 4.2 4.4 2.7 7.1-1.2 2.2-3.4 2.8-6.2 3l-1 4.4a5.1 5.1 0 0 1 2.8 3.2 4.8 4.8 0 0 1-6.5 5.5l-1.1 4.5a4.8 4.8 0 0 1 5.2 2.6 4.4 4.4 0 0 1-1.2 5.3 4.7 4.7 0 0 1-6.1-.4c-.3 1-1.4 2.4-1.7 3.4.3.2 2.2 3.9-.7 6.2-2.7 2.1-5 2.2-7-.7-1.5-2.1-2.6-4.3-2.3-5-1.3 0-1.8.3-3 .2.7 1.5-2.9 5.3-6.6 4.2-9-2.7-3.6-8-2.7-8.7-1.6 0-.2 2-1.8 2 0 .2-4.9-.4-7 0-2.2.6-4.2-1.2-4-4.2.3-3.3 3.3-6 6.9-8Z" fill="#47AEA1"/><path d="m118.7 83 6.7-24.4 17.5 3.6L136 87l-17.3-4Z" fill="#F1B73E"/><path d="M118.7 83c1.5-3.5 3.5-7.6 6.7-7.5.4 0 1.2.2 1.6 0 .8-.5 1.2-3.2 1.2-3.2s-2.3-4.9.7-7.5c1.7-1.5 4.4-2 5.8-.5 1.4 1.6 1.4 4 .6 6.3a6.8 6.8 0 0 1-3 3.5l-.2 2.5c0 .4 1.9 1 3.5 2.9s.8 4.8.4 7.5l-17.3-4Z" fill="#E2504B"/><path d="M103.4 88.3c-.4 4 1.4 8.5 5.7 9.5a9.7 9.7 0 0 0 9.9-4l-5.5-2.2a8.8 8.8 0 0 0 6.5 11.6c3.2.6 6.5.1 9-2.3 1.5-1.4 2.2-3.3 3.3-5l-5.6-1.6c.1 2.8 1.3 5.5 3.2 7.5a10.4 10.4 0 0 0 10.4 2.4 7.4 7.4 0 0 0 5.7-6.5c.2-1.8-.1-3.6-1-5.1a3 3 0 0 0-4.1-1 3 3 0 0 0-1.1 4l.2.3c-.4-1.2-.2-.2 0 0l.1.9c.1.2 0-.9 0-.2V97.5c-.1.3-.4.5 0 0l-.3.4c.3-.5 0-.3 0 0l-.1.1c.3-.2.3-.2 0 0l-.6.3c.5-.2 0 0-.3 0a6 6 0 0 1-3 .2s-.8-.3-.3 0l-.7-.5c-.5-.3.2.3-.2-.1l-.5-.6c-.5-.4.1.4-.2-.1l-.4-.6c0-.3-.2-.5-.3-.7-.3-.5.1.5 0 0l-.3-1.3v-.3.4-.5a3 3 0 0 0-5.8-1.4l-1 1.8-.5 1-.4.5s-.4.6-.2.2l-.2.3-.5.4-.5.4c.6-.4-1 .1-.7.1h-.6a7 7 0 0 1-1 0l-1.2-.4c.5.2-.3-.2-.3-.2-.5-.2.1.2-.1 0l-.4-.5c.4.5 0 0 0-.1l-.2-.3-.1-.3-.1-.6c0 .3 0 .5 0 0v-1c0-.8-.2.5 0-.2 0-.3 0-.5.2-.7a3 3 0 0 0-1.8-3.6 3 3 0 0 0-3.7 1.2l-.3.3-.3.3c.3-.3.3-.3.1-.2l-.6.4-.4.2c.4-.1.4-.2.1 0l-.6.1-.5.1h.2-.6c-.4.1.5.2-.2 0-.1 0-.9-.3-.4 0 .4.1-.3-.3-.4-.3.7.4 0 0-.1-.2l-.2-.2.1.1-.2-.4c.1.4.2.4 0 0l-.2-.7c.2.6 0-.5 0-.7l.1-1.3c.2-1.6-1.5-3-3-3a3 3 0 0 0-3 3Z" fill="#182B81"/></g><defs><clipPath id="a"><path fill="#fff" transform="translate(21 37)" d="M0 0h150v118.5H0z"/></clipPath></defs></svg>